<svg width="49" height="29" viewBox="0 0 49 29" fill="none" xmlns="http://www.w3.org/2000/svg">
<path d="M1.40423 8.14419C1.6489 8.57003 1.90954 8.94796 2.18613 9.27799C2.47336 9.59737 2.78718 9.84755 3.1276 10.0285C3.46802 10.1989 3.85099 10.284 4.27651 10.284C4.78714 10.284 5.20203 10.1456 5.52117 9.86884C5.84031 9.59205 5.99988 9.2354 5.99988 8.79892C5.99988 8.38373 5.89882 8.0537 5.6967 7.80884C5.49457 7.55334 5.21266 7.34042 4.85097 7.17008C4.49991 6.9891 4.09035 6.81344 3.62227 6.6431C3.34568 6.54729 3.03717 6.41954 2.69676 6.25985C2.35634 6.08951 2.03188 5.88191 1.72337 5.63706C1.41487 5.38155 1.15955 5.07282 0.957428 4.71085C0.755304 4.33824 0.654243 3.89111 0.654243 3.36946C0.654243 2.77328 0.808495 2.25163 1.117 1.8045C1.4255 1.34672 1.84039 0.995401 2.36166 0.750543C2.89356 0.495039 3.49461 0.367287 4.16481 0.367287C4.82437 0.367287 5.39883 0.484393 5.88818 0.718604C6.37754 0.952816 6.7871 1.2509 7.11688 1.61287C7.4573 1.97483 7.72325 2.35277 7.91474 2.74667L6.38285 3.60899C6.24456 3.3322 6.06903 3.07669 5.85627 2.84248C5.64351 2.59762 5.39351 2.406 5.10628 2.2676C4.82969 2.11855 4.50523 2.04403 4.1329 2.04403C3.61163 2.04403 3.22866 2.16646 2.98398 2.41132C2.73931 2.64553 2.61697 2.92233 2.61697 3.24171C2.61697 3.52915 2.70208 3.78998 2.87228 4.02419C3.05313 4.24775 3.32972 4.46067 3.70206 4.66295C4.07439 4.86522 4.55842 5.07282 5.15415 5.28574C5.48394 5.40284 5.81372 5.55189 6.1435 5.73287C6.48392 5.91385 6.79242 6.14274 7.06901 6.41954C7.3456 6.68569 7.56368 6.99974 7.72325 7.36171C7.89346 7.72367 7.97857 8.14951 7.97857 8.63923C7.97857 9.16088 7.87751 9.62931 7.67538 10.0445C7.47326 10.4597 7.19667 10.811 6.84561 11.0985C6.49455 11.3753 6.09563 11.5882 5.64883 11.7372C5.21266 11.8969 4.75523 11.9767 4.27651 11.9767C3.61695 11.9767 3.00526 11.849 2.44144 11.5935C1.88826 11.3273 1.40423 10.976 0.989342 10.5395C0.574457 10.1031 0.244676 9.62931 0 9.1183L1.40423 8.14419Z" fill="#3E3E3E"/>
<path d="M10.661 6.61117V4.87054H18.6236V6.61117H10.661ZM17.4109 0.558914H19.2938V11.7372H17.4109V0.558914ZM9.911 0.558914H11.7939V11.7372H9.911V0.558914Z" fill="#3E3E3E"/>
<path d="M23.1417 6.14806C23.1417 6.91458 23.3013 7.60124 23.6204 8.20807C23.9502 8.80424 24.4023 9.27267 24.9768 9.61334C25.5512 9.95401 26.2055 10.1243 26.9395 10.1243C27.6842 10.1243 28.3384 9.95401 28.9022 9.61334C29.4767 9.27267 29.9235 8.80424 30.2426 8.20807C30.5724 7.60124 30.7373 6.91458 30.7373 6.14806C30.7373 5.38155 30.5777 4.70021 30.2586 4.10403C29.9395 3.49721 29.4927 3.02346 28.9182 2.68279C28.3544 2.34212 27.6948 2.17178 26.9395 2.17178C26.2055 2.17178 25.5512 2.34212 24.9768 2.68279C24.4023 3.02346 23.9502 3.49721 23.6204 4.10403C23.3013 4.70021 23.1417 5.38155 23.1417 6.14806ZM21.1471 6.14806C21.1471 5.30703 21.2907 4.5352 21.5779 3.83256C21.8651 3.12992 22.2694 2.5231 22.7907 2.01209C23.3226 1.49044 23.9396 1.08589 24.6417 0.798449C25.3544 0.511008 26.1204 0.367287 26.9395 0.367287C27.7799 0.367287 28.5512 0.511008 29.2533 0.798449C29.9554 1.08589 30.5671 1.49044 31.0884 2.01209C31.6203 2.5231 32.0298 3.12992 32.3171 3.83256C32.6043 4.5352 32.7479 5.30703 32.7479 6.14806C32.7479 6.97845 32.6043 7.75029 32.3171 8.46357C32.0298 9.17685 31.6256 9.79432 31.1043 10.316C30.5831 10.8376 29.966 11.2475 29.2533 11.5456C28.5512 11.833 27.7799 11.9767 26.9395 11.9767C26.1097 11.9767 25.3385 11.833 24.6257 11.5456C23.913 11.2475 23.296 10.8376 22.7747 10.316C22.2641 9.79432 21.8651 9.17685 21.5779 8.46357C21.2907 7.75029 21.1471 6.97845 21.1471 6.14806Z" fill="#3E3E3E"/>
<path d="M44.1969 8.04838L46.8139 0.558914H49L44.4363 12.3281L40.9895 4.42341L37.5428 12.3281L32.979 0.558914H35.1652L37.814 8.04838L40.9895 0L44.1969 8.04838Z" fill="#3E3E3E"/>
<path d="M2.67607 21.8041C2.67607 22.7767 2.89277 23.631 3.32618 24.367C3.77271 25.103 4.35058 25.6748 5.05979 26.0822C5.78213 26.4765 6.56357 26.6737 7.40411 26.6737C8.06078 26.6737 8.65179 26.5882 9.17713 26.4174C9.70246 26.2465 10.1753 26.0165 10.5955 25.7273C11.0289 25.425 11.4032 25.0899 11.7184 24.7219V27.482C11.1406 27.9551 10.5167 28.3166 9.84693 28.5663C9.17713 28.816 8.33659 28.9409 7.32531 28.9409C6.31403 28.9409 5.36843 28.77 4.48849 28.4283C3.62168 28.0865 2.86651 27.5937 2.22297 26.9497C1.57943 26.3056 1.07379 25.5499 0.706054 24.6825C0.351451 23.8019 0.174149 22.8424 0.174149 21.8041C0.174149 20.7658 0.351451 19.8129 0.706054 18.9454C1.07379 18.0648 1.57943 17.3025 2.22297 16.6585C2.86651 16.0145 3.62168 15.5216 4.48849 15.1799C5.36843 14.8382 6.31403 14.6673 7.32531 14.6673C8.33659 14.6673 9.17713 14.7922 9.84693 15.0419C10.5167 15.2916 11.1406 15.6531 11.7184 16.1262V18.8863C11.4032 18.5183 11.0289 18.1897 10.5955 17.9006C10.1753 17.5983 9.70246 17.3617 9.17713 17.1908C8.65179 17.02 8.06078 16.9345 7.40411 16.9345C6.56357 16.9345 5.78213 17.1383 5.05979 17.5457C4.35058 17.94 3.77271 18.5051 3.32618 19.2412C2.89277 19.964 2.67607 20.8184 2.67607 21.8041Z" fill="#3E3E3E"/>
<path d="M15.9492 25.1556L16.3826 23.1841H22.7852L23.2383 25.1556H15.9492ZM19.5543 18.8074L17.3873 23.8741L17.3479 24.3867L15.437 28.7043H12.8169L19.5543 14.135L26.2918 28.7043H23.6717L21.8002 24.505L21.7411 23.9333L19.5543 18.8074Z" fill="#3E3E3E"/>
<path d="M28.8022 24.2684C29.1043 24.7942 29.426 25.2608 29.7675 25.6682C30.1221 26.0625 30.5095 26.3714 30.9298 26.5948C31.3501 26.8051 31.8229 26.9102 32.3482 26.9102C32.9786 26.9102 33.4908 26.7394 33.8848 26.3976C34.2788 26.0559 34.4758 25.6156 34.4758 25.0768C34.4758 24.5642 34.3511 24.1567 34.1015 23.8544C33.852 23.539 33.504 23.2761 33.0574 23.0658C32.624 22.8424 32.1184 22.6255 31.5405 22.4153C31.199 22.297 30.8182 22.1392 30.3979 21.9421C29.9776 21.7318 29.5771 21.4755 29.1962 21.1732C28.8153 20.8578 28.5001 20.4766 28.2506 20.0298C28.001 19.5697 27.8763 19.0177 27.8763 18.3737C27.8763 17.6377 28.0667 16.9937 28.4476 16.4417C28.8285 15.8765 29.3407 15.4428 29.9842 15.1405C30.6409 14.825 31.3829 14.6673 32.2103 14.6673C33.0246 14.6673 33.7338 14.8119 34.3379 15.1011C34.9421 15.3902 35.4477 15.7582 35.8548 16.2051C36.2751 16.652 36.6035 17.1185 36.8399 17.6048L34.9486 18.6694C34.7779 18.3277 34.5612 18.0123 34.2985 17.7231C34.0359 17.4208 33.7272 17.1843 33.3726 17.0134C33.0312 16.8294 32.6306 16.7374 32.1709 16.7374C31.5274 16.7374 31.0546 16.8885 30.7525 17.1908C30.4504 17.48 30.2994 17.8217 30.2994 18.216C30.2994 18.5709 30.4045 18.8929 30.6146 19.182C30.8379 19.458 31.1793 19.7209 31.639 19.9706C32.0987 20.2203 32.6963 20.4766 33.4317 20.7395C33.8389 20.8841 34.246 21.0681 34.6531 21.2915C35.0734 21.5149 35.4543 21.7975 35.7957 22.1392C36.1372 22.4678 36.4064 22.8555 36.6035 23.3024C36.8136 23.7493 36.9187 24.275 36.9187 24.8796C36.9187 25.5236 36.7939 26.1019 36.5443 26.6145C36.2948 27.1271 35.9533 27.5608 35.5199 27.9157C35.0865 28.2574 34.594 28.5203 34.0424 28.7043C33.504 28.9014 32.9392 29 32.3482 29C31.5339 29 30.7788 28.8423 30.0827 28.5268C29.3998 28.1983 28.8022 27.7645 28.29 27.2257C27.7778 26.6868 27.3706 26.1019 27.0686 25.471L28.8022 24.2684Z" fill="#3E3E3E"/>
<path d="M40.7425 28.7043V26.6539H47.6966V28.7043H40.7425ZM40.7425 16.9542V14.9039H47.6966V16.9542H40.7425ZM40.7425 22.3167V20.3058H47.3026V22.3167H40.7425ZM39.3044 14.9039H41.5896V28.7043H39.3044V14.9039Z" fill="#3E3E3E"/>
</svg>
