<svg width="102" height="102" viewBox="0 0 102 102" fill="none" xmlns="http://www.w3.org/2000/svg">
<mask id="mask0_10_1284" style="mask-type:alpha" maskUnits="userSpaceOnUse" x="0" y="0" width="102" height="102">
<rect width="102" height="102" fill="#D8D8D8"/>
</mask>
<g mask="url(#mask0_10_1284)">
<path d="M21.25 89.25C18.9125 89.25 16.9115 88.4177 15.2469 86.7531C13.5823 85.0885 12.75 83.0875 12.75 80.75V21.25C12.75 18.9125 13.5823 16.9115 15.2469 15.2469C16.9115 13.5823 18.9125 12.75 21.25 12.75H80.75C83.0875 12.75 85.0885 13.5823 86.7531 15.2469C88.4177 16.9115 89.25 18.9125 89.25 21.25V80.75C89.25 83.0875 88.4177 85.0885 86.7531 86.7531C85.0885 88.4177 83.0875 89.25 80.75 89.25H21.25ZM21.25 80.75H80.75V21.25H21.25V80.75ZM25.5 72.25H76.5L60.5625 51L47.8125 68L38.25 55.25L25.5 72.25ZM36.125 42.5C37.8958 42.5 39.401 41.8802 40.6406 40.6406C41.8802 39.401 42.5 37.8958 42.5 36.125C42.5 34.3542 41.8802 32.849 40.6406 31.6094C39.401 30.3698 37.8958 29.75 36.125 29.75C34.3542 29.75 32.849 30.3698 31.6094 31.6094C30.3698 32.849 29.75 34.3542 29.75 36.125C29.75 37.8958 30.3698 39.401 31.6094 40.6406C32.849 41.8802 34.3542 42.5 36.125 42.5Z" fill="#D8D8D8"/>
</g>
</svg>
